<svg width="146" height="182" viewBox="0 0 146 182" fill="none" xmlns="http://www.w3.org/2000/svg">
<path d="M63.6926 69.2886L72.0106 61.1996C72.829 60.3905 73.1113 59.2182 72.7534 58.1568C72.3998 57.069 71.4788 56.2913 70.3481 56.1263H70.3467L58.8606 54.4649L53.7221 44.0717C53.2288 43.0998 52.2036 42.4969 51.0473 42.4969C49.891 42.4969 48.8659 43.0998 48.3668 44.0845L43.234 54.4649L31.7494 56.1263C30.6173 56.2906 29.6948 57.069 29.3455 58.1447C28.9891 59.2075 29.2799 60.4076 30.0926 61.2088L38.4078 69.2886L36.4473 80.6842C36.2491 81.7983 36.7168 82.9457 37.6321 83.6041C38.5489 84.2716 39.7865 84.3584 40.776 83.833L51.0473 78.4455L61.3058 83.8259C61.7307 84.0541 62.2169 84.1749 62.7088 84.1749C63.3404 84.1749 63.9663 83.9702 64.4568 83.6083C65.3793 82.9443 65.8469 81.7969 65.6487 80.6963L63.6926 69.2886ZM60.6856 69.0256L62.6788 81.2551L51.7274 75.5115C51.5135 75.3998 51.2811 75.3444 51.0473 75.3444C50.8135 75.3444 50.5811 75.3998 50.3672 75.5115L39.3231 81.184L41.4147 69.0263C41.496 68.5542 41.3392 68.0722 40.9956 67.7374L32.1685 59.0085L44.4132 57.2368C44.8894 57.1679 45.3 56.87 45.5124 56.4399L50.9432 45.4296C50.9874 45.4018 51.1086 45.4018 51.11 45.3727L56.5822 56.4399C56.7946 56.87 57.2053 57.1679 57.6815 57.2368L69.9275 59.0085L70.1371 57.5674L69.9632 59.1236L61.1048 67.7381C60.7612 68.0722 60.6043 68.5535 60.6856 69.0256Z" fill="#005AAA"/>
<path d="M72.7407 27.0988H67.7676C66.9606 27.0988 66.3076 27.7507 66.3076 28.5548C66.3076 29.3589 66.9606 30.0108 67.7676 30.0108H72.7407C73.5477 30.0108 74.2007 29.3589 74.2007 28.5548C74.2007 27.7507 73.5477 27.0988 72.7407 27.0988Z" fill="#005AAA"/>
<path d="M54.9981 30.0108H59.9712C60.7782 30.0108 61.4312 29.3589 61.4312 28.5548C61.4312 27.7507 60.7782 27.0988 59.9712 27.0988H54.9981C54.1911 27.0988 53.5381 27.7507 53.5381 28.5548C53.5381 29.3589 54.1911 30.0108 54.9981 30.0108Z" fill="#005AAA"/>
<path d="M42.2286 30.0108H47.2017C48.0087 30.0108 48.6617 29.3589 48.6617 28.5548C48.6617 27.7507 48.0087 27.0988 47.2017 27.0988H42.2286C41.4216 27.0988 40.7686 27.7507 40.7686 28.5548C40.7686 29.3589 41.4216 30.0108 42.2286 30.0108Z" fill="#005AAA"/>
<path d="M29.4598 30.0108H34.4329C35.2399 30.0108 35.8929 29.3589 35.8929 28.5548C35.8929 27.7507 35.2399 27.0988 34.4329 27.0988H29.4598C28.6528 27.0988 27.9998 27.7507 27.9998 28.5548C27.9998 29.3589 28.6528 30.0108 29.4598 30.0108Z" fill="#005AAA"/>
<path d="M72.7407 96.6612H67.7676C66.9606 96.6612 66.3076 97.3131 66.3076 98.1172C66.3076 98.9213 66.9606 99.5732 67.7676 99.5732H72.7407C73.5477 99.5732 74.2007 98.9213 74.2007 98.1172C74.2007 97.3131 73.5477 96.6612 72.7407 96.6612Z" fill="#005AAA"/>
<path d="M59.9712 96.6612H54.9981C54.1911 96.6612 53.5381 97.3131 53.5381 98.1172C53.5381 98.9213 54.1911 99.5732 54.9981 99.5732H59.9712C60.7782 99.5732 61.4312 98.9213 61.4312 98.1172C61.4312 97.3131 60.7782 96.6612 59.9712 96.6612Z" fill="#005AAA"/>
<path d="M47.2017 96.6612H42.2286C41.4216 96.6612 40.7686 97.3131 40.7686 98.1172C40.7686 98.9213 41.4216 99.5732 42.2286 99.5732H47.2017C48.0087 99.5732 48.6617 98.9213 48.6617 98.1172C48.6617 97.3131 48.0087 96.6612 47.2017 96.6612Z" fill="#005AAA"/>
<path d="M34.4329 96.6612H29.4598C28.6528 96.6612 27.9998 97.3131 27.9998 98.1172C27.9998 98.9213 28.6528 99.5732 29.4598 99.5732H34.4329C35.2399 99.5732 35.8929 98.9213 35.8929 98.1172C35.8929 97.3131 35.2399 96.6612 34.4329 96.6612Z" fill="#005AAA"/>
<path d="M129.94 29.2302H87.6001V16.016C87.6001 15.2119 86.9471 14.56 86.1401 14.56H16.0601C15.2531 14.56 14.6001 15.2119 14.6001 16.016V114.914C14.6001 115.718 15.2531 116.37 16.0601 116.37H58.4001V129.584C58.4001 130.388 59.0531 131.04 59.8601 131.04H129.94C130.747 131.04 131.4 130.388 131.4 129.584V30.6862C131.4 29.8821 130.747 29.2302 129.94 29.2302ZM17.5201 99.5732H21.6634C22.4704 99.5732 23.1234 98.9213 23.1234 98.1172C23.1234 97.3131 22.4704 96.6612 21.6634 96.6612H17.5201V30.0108H21.6634C22.4704 30.0108 23.1234 29.3589 23.1234 28.5548C23.1234 27.7507 22.4704 27.0988 21.6634 27.0988H17.5201V17.472H84.6801V27.0988H80.5368C79.7298 27.0988 79.0768 27.7507 79.0768 28.5548C79.0768 29.3589 79.7298 30.0108 80.5368 30.0108H84.6801V96.6612H80.5368C79.7298 96.6612 79.0768 97.3131 79.0768 98.1172C79.0768 98.9213 79.7298 99.5732 80.5368 99.5732H84.6801V113.458H17.5201V99.5732ZM80.5164 116.37L61.3201 127.027V116.37H80.5164ZM128.48 128.128H65.339L86.8501 116.186C86.9066 116.154 86.941 116.103 86.9916 116.065C87.0754 116.003 87.156 115.944 87.2246 115.867C87.2864 115.797 87.3303 115.72 87.3769 115.641C87.4249 115.56 87.4714 115.483 87.5031 115.393C87.5373 115.297 87.5493 115.2 87.5627 115.099C87.571 115.035 87.6001 114.979 87.6001 114.914V32.1422H128.48V128.128Z" fill="#005AAA"/>
<path d="M129.94 29.2302H87.5998V16.016C87.5998 15.2119 86.9468 14.56 86.1398 14.56H16.0599C15.2529 14.56 14.5999 15.2119 14.5999 16.016V114.914C14.5999 115.718 15.2529 116.37 16.0599 116.37H58.3998V129.584C58.3998 130.388 59.0529 131.04 59.8598 131.04H129.94C130.747 131.04 131.4 130.388 131.4 129.584V30.6862C131.4 29.8821 130.747 29.2302 129.94 29.2302ZM17.5199 99.5732H21.6632C22.4702 99.5732 23.1232 98.9213 23.1232 98.1172C23.1232 97.3131 22.4702 96.6612 21.6632 96.6612H17.5199V30.0108H21.6632C22.4702 30.0108 23.1232 29.3589 23.1232 28.5548C23.1232 27.7507 22.4702 27.0988 21.6632 27.0988H17.5199V17.472H84.6798V27.0988H80.5365C79.7295 27.0988 79.0765 27.7507 79.0765 28.5548C79.0765 29.3589 79.7295 30.0108 80.5365 30.0108H84.6798V96.6612H80.5365C79.7295 96.6612 79.0765 97.3131 79.0765 98.1172C79.0765 98.9213 79.7295 99.5732 80.5365 99.5732H84.6798V113.458H17.5199V99.5732ZM80.5162 116.37L61.3198 127.027V116.37H80.5162ZM128.48 128.128H65.3388L86.8499 116.186C86.9064 116.154 86.9408 116.102 86.9914 116.065C87.0751 116.003 87.1557 115.944 87.2243 115.867C87.2862 115.797 87.33 115.72 87.3767 115.641C87.4246 115.56 87.4712 115.483 87.5029 115.393C87.5371 115.297 87.549 115.2 87.5624 115.099C87.5708 115.035 87.5998 114.979 87.5998 114.914V32.1422H128.48V128.128Z" fill="#005AAA"/>
<path d="M100.255 49.1194H116.071C116.878 49.1194 117.531 48.4675 117.531 47.6634C117.531 46.8593 116.878 46.2074 116.071 46.2074H100.255C99.4482 46.2074 98.7952 46.8593 98.7952 47.6634C98.7952 48.4675 99.4482 49.1194 100.255 49.1194Z" fill="#005AAA"/>
<path d="M100.255 62.3343H116.071C116.878 62.3343 117.531 61.6824 117.531 60.8783C117.531 60.0742 116.878 59.4223 116.071 59.4223H100.255C99.4482 59.4223 98.7952 60.0742 98.7952 60.8783C98.7952 61.6824 99.4482 62.3343 100.255 62.3343Z" fill="#005AAA"/>
<path d="M100.255 75.5485H116.071C116.878 75.5485 117.531 74.8965 117.531 74.0925C117.531 73.2884 116.878 72.6365 116.071 72.6365H100.255C99.4482 72.6365 98.7952 73.2884 98.7952 74.0925C98.7952 74.8965 99.4482 75.5485 100.255 75.5485Z" fill="#005AAA"/>
<path d="M100.255 88.7634H116.071C116.878 88.7634 117.531 88.1115 117.531 87.3074C117.531 86.5033 116.878 85.8514 116.071 85.8514H100.255C99.4482 85.8514 98.7952 86.5033 98.7952 87.3074C98.7952 88.1115 99.4482 88.7634 100.255 88.7634Z" fill="#005AAA"/>
<path d="M100.255 101.978H116.071C116.878 101.978 117.531 101.326 117.531 100.522C117.531 99.7175 116.878 99.0656 116.071 99.0656H100.255C99.4482 99.0656 98.7952 99.7175 98.7952 100.522C98.7952 101.326 99.4482 101.978 100.255 101.978Z" fill="#005AAA"/>
<path d="M116.071 112.28H100.255C99.4482 112.28 98.7952 112.932 98.7952 113.736C98.7952 114.541 99.4482 115.192 100.255 115.192H116.071C116.878 115.192 117.531 114.541 117.531 113.736C117.531 112.932 116.878 112.28 116.071 112.28Z" fill="#005AAA"/>
</svg>
