<svg width="142" height="178" viewBox="0 0 142 178" fill="none" xmlns="http://www.w3.org/2000/svg">
<path d="M15.7974 127.673H126.557C127.343 127.673 127.977 127.036 127.977 126.249C127.977 125.462 127.343 124.825 126.557 124.825H113.04V99.7427H114.595C115.381 99.7427 116.015 99.1061 116.015 98.3186V89.8188C116.015 89.0313 115.381 88.3948 114.595 88.3948H109.814C109.818 88.3521 109.838 88.3165 109.838 88.2723V33.024H111.403C112.188 33.024 112.823 32.3875 112.823 31.6V21.8812C112.823 21.0937 112.188 20.4572 111.403 20.4572H109.838V15.177C109.838 14.3895 109.204 13.753 108.418 13.753H71.0425C70.2573 13.753 69.6225 14.3895 69.6225 15.177V20.4572H68.0577C67.2724 20.4572 66.6377 21.0937 66.6377 21.8812V31.6C66.6377 32.3875 67.2724 33.024 68.0577 33.024H69.8909V37.3914H47.827V32.4458C47.827 31.6584 47.1922 31.0218 46.407 31.0218H38.729C37.9438 31.0218 37.309 31.6584 37.309 32.4458V37.3914H30.9517C30.1664 37.3914 29.5317 38.0279 29.5317 38.8154V48.5342C29.5317 49.3217 30.1664 49.9582 30.9517 49.9582H32.5165V124.824H15.7974C15.0122 124.824 14.3774 125.46 14.3774 126.248C14.3774 127.035 15.0122 127.673 15.7974 127.673ZM80.4813 124.825H73.2648V111.526H80.4813V124.825ZM110.2 124.825H83.3199V110.102C83.3199 109.315 82.6851 108.678 81.8999 108.678H71.8434C71.0582 108.678 70.4234 109.315 70.4234 110.102V124.825H64.0987V99.7427H110.2V124.825ZM113.175 96.8947H61.0898V91.2428H113.175V96.8947ZM72.4625 16.601H106.998V20.4572H72.4625V16.601ZM69.4791 23.3052H109.983V30.176H69.4791V23.3052ZM72.7323 33.024H107V88.2723C107 88.3165 107.021 88.3521 107.024 88.3948H72.7068C72.711 88.3521 72.7309 88.3165 72.7309 88.2723V49.9596H74.2958C75.081 49.9596 75.7158 49.3231 75.7158 48.5356V38.8168C75.7158 38.0293 75.081 37.3928 74.2958 37.3928H72.7323V33.024ZM40.1476 33.8713H44.9855V37.3928H40.1476V33.8713ZM32.3717 40.2408H72.8758V47.1116H32.3717V40.2408ZM35.3551 49.9596H69.8923V88.2723C69.8923 88.3165 69.9136 88.3521 69.9165 88.3948H59.6698C58.8845 88.3948 58.2498 89.0313 58.2498 89.8188V98.3186C58.2498 99.1061 58.8845 99.7427 59.6698 99.7427H61.2587V124.825H35.3551V49.9596Z" fill="#005AAA"/>
<path d="M79.9232 66.9038C80.7084 66.9038 81.3432 66.2673 81.3432 65.4798V59.0163C81.3432 58.2288 80.7084 57.5923 79.9232 57.5923C79.1379 57.5923 78.5032 58.2288 78.5032 59.0163V65.4798C78.5032 66.2673 79.1379 66.9038 79.9232 66.9038Z" fill="#005AAA"/>
<path d="M89.9798 66.9038C90.7651 66.9038 91.3998 66.2673 91.3998 65.4798V59.0163C91.3998 58.2288 90.7651 57.5923 89.9798 57.5923C89.1946 57.5923 88.5598 58.2288 88.5598 59.0163V65.4798C88.5598 66.2673 89.1946 66.9038 89.9798 66.9038Z" fill="#005AAA"/>
<path d="M100.036 66.9038C100.821 66.9038 101.456 66.2673 101.456 65.4798V59.0163C101.456 58.2288 100.821 57.5923 100.036 57.5923C99.251 57.5923 98.6162 58.2288 98.6162 59.0163V65.4798C98.6162 66.2673 99.2524 66.9038 100.036 66.9038Z" fill="#005AAA"/>
<path d="M79.9232 83.9334C80.7084 83.9334 81.3432 83.2969 81.3432 82.5094V76.0445C81.3432 75.257 80.7084 74.6205 79.9232 74.6205C79.1379 74.6205 78.5032 75.257 78.5032 76.0445V82.5094C78.5032 83.2969 79.1379 83.9334 79.9232 83.9334Z" fill="#005AAA"/>
<path d="M89.9798 83.9334C90.7651 83.9334 91.3998 83.2969 91.3998 82.5094V76.0445C91.3998 75.257 90.7651 74.6205 89.9798 74.6205C89.1946 74.6205 88.5598 75.257 88.5598 76.0445V82.5094C88.5598 83.2969 89.1946 83.9334 89.9798 83.9334Z" fill="#005AAA"/>
<path d="M100.036 83.9334C100.821 83.9334 101.456 83.2969 101.456 82.5094V76.0445C101.456 75.257 100.821 74.6205 100.036 74.6205C99.251 74.6205 98.6162 75.257 98.6162 76.0445V82.5094C98.6162 83.2969 99.2524 83.9334 100.036 83.9334Z" fill="#005AAA"/>
<path d="M79.9232 49.9654C80.7084 49.9654 81.3432 49.3288 81.3432 48.5414V42.0764C81.3432 41.2889 80.7084 40.6524 79.9232 40.6524C79.1379 40.6524 78.5032 41.2889 78.5032 42.0764V48.5414C78.5032 49.3288 79.1379 49.9654 79.9232 49.9654Z" fill="#005AAA"/>
<path d="M89.9798 49.9654C90.7651 49.9654 91.3998 49.3288 91.3998 48.5414V42.0764C91.3998 41.2889 90.7651 40.6524 89.9798 40.6524C89.1946 40.6524 88.5598 41.2889 88.5598 42.0764V48.5414C88.5598 49.3288 89.1946 49.9654 89.9798 49.9654Z" fill="#005AAA"/>
<path d="M100.036 49.9654C100.821 49.9654 101.456 49.3288 101.456 48.5414V42.0764C101.456 41.2889 100.821 40.6524 100.036 40.6524C99.251 40.6524 98.6162 41.2889 98.6162 42.0764V48.5414C98.6162 49.3288 99.2524 49.9654 100.036 49.9654Z" fill="#005AAA"/>
<path d="M42.5687 57.5923C41.7834 57.5923 41.1487 58.2288 41.1487 59.0163V65.4798C41.1487 66.2673 41.7834 66.9038 42.5687 66.9038C43.3539 66.9038 43.9887 66.2673 43.9887 65.4798V59.0163C43.9887 58.2302 43.3525 57.5923 42.5687 57.5923Z" fill="#005AAA"/>
<path d="M52.6236 57.5923C51.8384 57.5923 51.2036 58.2288 51.2036 59.0163V65.4798C51.2036 66.2673 51.8384 66.9038 52.6236 66.9038C53.4089 66.9038 54.0436 66.2673 54.0436 65.4798V59.0163C54.0436 58.2302 53.4075 57.5923 52.6236 57.5923Z" fill="#005AAA"/>
<path d="M62.68 66.9038C63.4653 66.9038 64.1 66.2673 64.1 65.4798V59.0163C64.1 58.2288 63.4653 57.5923 62.68 57.5923C61.8948 57.5923 61.26 58.2288 61.26 59.0163V65.4798C61.26 66.2673 61.8948 66.9038 62.68 66.9038Z" fill="#005AAA"/>
<path d="M42.5687 74.6205C41.7834 74.6205 41.1487 75.257 41.1487 76.0445V82.5094C41.1487 83.2969 41.7834 83.9334 42.5687 83.9334C43.3539 83.9334 43.9887 83.2969 43.9887 82.5094V76.0445C43.9887 75.2584 43.3525 74.6205 42.5687 74.6205Z" fill="#005AAA"/>
<path d="M52.6236 74.6205C51.8384 74.6205 51.2036 75.257 51.2036 76.0445V82.5094C51.2036 83.2969 51.8384 83.9334 52.6236 83.9334C53.4089 83.9334 54.0436 83.2969 54.0436 82.5094V76.0445C54.0436 75.2584 53.4075 74.6205 52.6236 74.6205Z" fill="#005AAA"/>
<path d="M62.68 83.9334C63.4653 83.9334 64.1 83.2969 64.1 82.5094V76.0445C64.1 75.257 63.4653 74.6205 62.68 74.6205C61.8948 74.6205 61.26 75.257 61.26 76.0445V82.5094C61.26 83.2969 61.8948 83.9334 62.68 83.9334Z" fill="#005AAA"/>
<path d="M42.5687 91.6487C41.7834 91.6487 41.1487 92.2852 41.1487 93.0727V99.5376C41.1487 100.325 41.7834 100.962 42.5687 100.962C43.3539 100.962 43.9887 100.325 43.9887 99.5376V93.0727C43.9887 92.2866 43.3525 91.6487 42.5687 91.6487Z" fill="#005AAA"/>
<path d="M52.6236 91.6487C51.8384 91.6487 51.2036 92.2852 51.2036 93.0727V99.5376C51.2036 100.325 51.8384 100.962 52.6236 100.962C53.4089 100.962 54.0436 100.325 54.0436 99.5376V93.0727C54.0436 92.2866 53.4075 91.6487 52.6236 91.6487Z" fill="#005AAA"/>
<path d="M42.5687 108.678C41.7834 108.678 41.1487 109.315 41.1487 110.102V116.566C41.1487 117.353 41.7834 117.99 42.5687 117.99C43.3539 117.99 43.9887 117.353 43.9887 116.566V110.102C43.9887 109.316 43.3525 108.678 42.5687 108.678Z" fill="#005AAA"/>
<path d="M52.6236 108.678C51.8384 108.678 51.2036 109.315 51.2036 110.102V116.566C51.2036 117.353 51.8384 117.99 52.6236 117.99C53.4089 117.99 54.0436 117.353 54.0436 116.566V110.102C54.0436 109.316 53.4075 108.678 52.6236 108.678Z" fill="#005AAA"/>
<path d="M91.7335 117.99C92.5187 117.99 93.1535 117.353 93.1535 116.566V110.102C93.1535 109.315 92.5187 108.678 91.7335 108.678C90.9482 108.678 90.3135 109.315 90.3135 110.102V116.566C90.3135 117.353 90.9482 117.99 91.7335 117.99Z" fill="#005AAA"/>
<path d="M101.79 117.99C102.575 117.99 103.21 117.353 103.21 116.566V110.102C103.21 109.315 102.575 108.678 101.79 108.678C101.005 108.678 100.37 109.315 100.37 110.102V116.566C100.37 117.353 101.005 117.99 101.79 117.99Z" fill="#005AAA"/>
</svg>
