<svg width="146" height="135" viewBox="0 0 146 135" fill="none" xmlns="http://www.w3.org/2000/svg">
<path d="M126.403 41.3893V13.8463C126.403 11.9661 125.323 10.3526 123.584 9.63308C121.847 8.91361 119.939 9.29109 118.609 10.6208L112.691 16.5312C101.603 8.20833 87.9095 4.12137 73.9873 5.01114C46.5053 6.76228 23.859 27.8172 20.1384 55.0763C19.2221 61.7857 19.4707 68.5405 20.8771 75.1535C21.0206 75.8247 21.6144 76.3043 22.3006 76.3043H35.6687C36.1233 76.3043 36.5538 76.0915 36.8279 75.7296C37.1035 75.3663 37.193 74.8966 37.0695 74.4581C35.6602 69.4431 35.1885 64.2734 35.6687 59.0923C37.5922 38.3269 54.7548 21.8712 75.5926 20.8183C84.8452 20.3415 93.6999 22.7965 101.305 27.9066L94.146 35.0559C92.8149 36.3856 92.437 38.2914 93.1573 40.027C93.8775 41.7639 95.4942 42.8424 97.3751 42.8424H124.948C125.752 42.8424 126.403 42.1925 126.403 41.3893ZM123.493 39.9361H97.3751C96.348 39.9361 95.9445 39.1542 95.8451 38.9144C95.7456 38.6746 95.4771 37.8359 96.2031 37.1107L104.586 28.7382C104.887 28.4387 105.041 28.0215 105.008 27.5986C104.975 27.1758 104.76 26.7884 104.416 26.5372C95.963 20.367 85.9405 17.3969 75.4449 17.9148C53.1723 19.0416 34.8263 36.6297 32.7706 58.8255C32.3175 63.727 32.6598 68.6214 33.7906 73.3981H23.4911C22.3617 67.4819 22.204 61.4565 23.0223 55.468C26.5554 29.5754 48.068 9.5749 74.172 7.91174C87.7972 7.04752 101.216 11.1941 111.918 19.6035C112.495 20.0577 113.322 20.0094 113.846 19.4886L120.666 12.6756C121.392 11.9533 122.233 12.2186 122.47 12.318C122.711 12.4173 123.493 12.8203 123.493 13.8463V39.9361Z" fill="#005AAA"/>
<path d="M32.2145 116.503C33.9519 117.233 35.8598 116.85 37.1895 115.503L43.115 109.511C53.254 117.232 65.2909 121.304 78.0126 121.304C110.097 121.304 136.201 94.907 136.201 62.4616C136.201 57.9895 135.686 53.4858 134.67 49.0726C134.517 48.406 133.93 47.9348 133.254 47.9348H119.829C119.367 47.9348 118.932 48.156 118.658 48.5324C118.384 48.9074 118.303 49.393 118.438 49.8397C119.981 54.8951 120.576 60.1688 120.207 65.5115C118.743 86.809 101.741 103.851 80.6592 105.154C71.249 105.739 62.2437 103.265 54.5013 97.9971L61.6527 90.7653C62.9824 89.4207 63.3617 87.4928 62.6414 85.7344C61.9212 83.976 60.3059 82.8842 58.4236 82.8842H30.8507C30.0466 82.8842 29.396 83.5422 29.396 84.3553V112.238C29.396 114.142 30.4757 115.775 32.2145 116.503ZM32.3054 85.8263H58.4236C59.4507 85.8263 59.8542 86.6179 59.9536 86.8607C60.0531 87.1035 60.3216 87.951 59.5956 88.6852L51.2196 97.1553C50.9185 97.4584 50.765 97.8808 50.7977 98.3089C50.8304 98.737 51.0463 99.1292 51.3901 99.3834C59.992 105.74 70.1878 108.754 80.8368 108.091C103.372 106.699 121.545 88.4812 123.11 65.7155C123.457 60.6774 123.001 55.6953 121.755 50.877H132.086C132.887 54.7069 133.292 58.5972 133.292 62.4616C133.292 93.2851 108.494 118.362 78.0126 118.362C65.5196 118.362 53.7199 114.226 43.8892 106.401C43.625 106.19 43.3067 106.087 42.9899 106.087C42.6163 106.087 42.2441 106.232 41.9614 106.518L35.1325 113.423C34.4094 114.157 33.5684 113.887 33.3283 113.785C33.0882 113.685 32.3054 113.277 32.3054 112.238V85.8263Z" fill="#005AAA"/>
<path d="M77.8993 39.1304C64.6625 39.1304 53.8926 49.6633 53.8926 62.6087C53.8926 75.5541 64.6625 86.087 77.8993 86.087C91.1361 86.087 101.906 75.5541 101.906 62.6087C101.906 49.6633 91.1361 39.1304 77.8993 39.1304ZM65.2419 79.036C65.3991 72.2819 71.0553 66.8311 77.9984 66.8311C84.8943 66.8311 90.5167 72.2068 90.7491 78.8953C87.1884 81.5885 82.7385 83.2093 77.8993 83.2093C73.1462 83.2093 68.7706 81.6432 65.2419 79.036ZM70.8276 56.9404C70.8276 53.0721 74.0445 49.926 77.9984 49.926C81.9538 49.926 85.1707 53.0721 85.1707 56.9404C85.1707 60.8073 81.9538 63.9534 77.9984 63.9534C74.0445 63.9534 70.8276 60.8073 70.8276 56.9404ZM93.4323 76.4742C92.4268 71.2525 88.716 66.9632 83.7795 65.0446C86.3954 63.2547 88.1132 60.292 88.1132 56.9404C88.1132 51.4857 83.5759 47.0483 77.9984 47.0483C72.4224 47.0483 67.8851 51.4857 67.8851 56.9404C67.8851 60.2918 69.6028 63.2545 72.2182 65.0444C67.2244 66.9852 63.4902 71.354 62.5371 76.6581C59.0119 72.9737 56.835 68.0406 56.835 62.6087C56.835 51.2497 66.2846 42.0081 77.8993 42.0081C89.514 42.0081 98.9635 51.2497 98.9635 62.6087C98.9635 67.9514 96.8554 72.8097 93.4323 76.4742Z" fill="#005AAA"/>
</svg>
