<svg width="156" height="195" viewBox="0 0 156 195" fill="none" xmlns="http://www.w3.org/2000/svg">
<path d="M76.2838 86.268V104.208C72.2278 103.272 69.2638 99.684 69.2638 95.472C69.2638 94.536 68.6398 93.912 67.7038 93.912C66.7678 93.912 66.1438 94.536 66.1438 95.472C66.1438 101.556 70.5118 106.548 76.2838 107.484V110.76C76.2838 111.696 76.9078 112.32 77.8438 112.32C78.7798 112.32 79.4038 111.696 79.4038 110.76V107.64C85.4878 107.016 90.4798 101.868 90.4798 95.628C90.4798 89.388 85.6438 84.084 79.4038 83.616V65.364C83.6158 66.144 86.8918 69.732 86.8918 74.256C86.8918 75.192 87.5158 75.816 88.4518 75.816C89.3878 75.816 90.0118 75.192 90.0118 74.256C90.0118 68.172 85.3318 63.024 79.4038 62.244V59.124C79.4038 58.188 78.7798 57.564 77.8438 57.564C76.9078 57.564 76.2838 58.188 76.2838 59.124V62.244C70.3558 63.024 65.6758 68.172 65.6758 74.256C65.6758 80.34 70.1998 85.488 76.2838 86.268ZM87.2038 95.472C87.2038 99.996 83.7718 103.896 79.2478 104.364V86.424C83.7718 87.048 87.2038 90.792 87.2038 95.472ZM76.2838 65.364V83.148C72.0718 82.368 68.7958 78.78 68.7958 74.256C68.7958 69.732 72.0718 66.144 76.2838 65.364Z" fill="#005AAA"/>
<path d="M28.5481 87.828C28.5481 115.128 50.7001 137.28 78.0001 137.28C105.3 137.28 127.452 115.128 127.452 87.828C127.452 68.016 115.752 51.012 99.0601 43.056L104.052 19.968C104.208 19.5 104.052 19.032 103.74 18.72C103.428 18.408 102.96 18.096 102.492 18.096H53.6641C53.1961 18.096 52.7281 18.252 52.4161 18.72C52.1041 19.032 51.9481 19.5 52.1041 19.968L57.0961 43.056C40.2481 51.012 28.5481 68.016 28.5481 87.828ZM55.5361 21.216H100.464L96.0961 41.808C90.4801 39.624 84.3961 38.376 78.0001 38.376C71.6041 38.376 65.5201 39.624 59.9041 41.808L55.5361 21.216ZM78.0001 41.496C103.584 41.496 124.332 62.244 124.332 87.828C124.332 113.412 103.584 134.16 78.0001 134.16C52.4161 134.16 31.6681 113.412 31.6681 87.828C31.6681 62.244 52.4161 41.496 78.0001 41.496Z" fill="#005AAA"/>
</svg>
