<svg width="154" height="192" viewBox="0 0 154 192" fill="none" xmlns="http://www.w3.org/2000/svg">
<path d="M132.44 117.35C132.594 116.736 132.286 116.122 131.824 115.814L127.204 112.435L127.358 106.598C127.358 105.984 127.05 105.523 126.588 105.216C126.126 104.909 125.51 105.062 124.894 105.37L120.12 108.749L114.576 106.752C113.96 106.598 113.344 106.752 113.036 107.059C112.574 107.52 112.42 108.134 112.574 108.595L114.422 114.125L110.88 118.733C110.572 119.194 110.418 119.808 110.726 120.422C111.034 120.883 111.496 121.344 112.112 121.344H117.964L121.198 126.106C121.506 126.566 121.968 126.72 122.43 126.72H122.584C123.2 126.566 123.662 126.259 123.816 125.645L125.664 120.115L131.208 118.426C131.978 118.272 132.44 117.811 132.44 117.35ZM124.124 117.35C123.662 117.504 123.2 117.811 123.046 118.272L121.968 121.651L120.12 118.886C119.812 118.426 119.35 118.272 118.888 118.272H115.346L117.502 115.507C117.81 115.046 117.964 114.586 117.81 114.125L116.732 110.746L119.966 111.974C120.428 112.128 121.044 112.128 121.352 111.821L124.124 109.824L123.97 113.357C123.97 113.818 124.124 114.278 124.586 114.586L127.358 116.582L124.124 117.35Z" fill="#005AAA"/>
<path d="M33.418 35.3279C33.726 35.7887 34.188 36.2495 34.804 36.2495H40.656L43.89 41.0111C44.198 41.4719 44.66 41.6255 45.122 41.6255H45.276C45.892 41.4719 46.354 41.1647 46.508 40.5503L48.356 35.0207L53.9 33.3311C54.516 33.1775 54.824 32.7167 54.978 32.1023C55.132 31.4879 54.824 30.8735 54.362 30.5663L49.742 27.1871L49.896 21.3503C49.896 20.7359 49.588 20.2751 49.126 19.9679C48.664 19.6607 48.048 19.8143 47.432 20.1215L42.658 23.5007L37.114 21.5039C36.498 21.3503 35.882 21.5039 35.574 21.8111C35.112 22.2719 34.958 22.8863 35.112 23.3471L36.96 28.8767L33.418 33.4847C33.264 34.2527 33.264 34.8671 33.418 35.3279ZM40.348 29.0303L39.27 25.6511L42.504 26.8799C42.966 27.0335 43.582 27.0335 43.89 26.7263L46.662 24.7295L46.508 28.2623C46.508 28.7231 46.662 29.1839 47.124 29.4911L49.896 31.4879L46.508 32.4095C46.046 32.5631 45.584 32.8703 45.43 33.3311L44.66 36.7103L42.658 33.7919C42.35 33.3311 41.888 33.1775 41.426 33.1775H37.884L40.04 30.4127C40.348 29.9519 40.502 29.4911 40.348 29.0303Z" fill="#005AAA"/>
<path d="M29.1059 68.6593C28.4899 68.8129 28.1819 69.4273 28.1819 69.8881C28.1819 70.5025 28.3359 70.9633 28.9519 71.2705L32.3399 73.4209L32.4939 77.4145C32.4939 78.0289 32.8019 78.4897 33.4179 78.7969C33.5719 78.9505 33.8799 78.9505 34.0339 78.9505C34.3419 78.9505 34.8039 78.7969 34.9579 78.6433L38.0379 76.0321L41.8879 77.1073C42.5039 77.2609 43.1199 77.1073 43.4279 76.6465C43.7359 76.1857 43.8899 75.5713 43.7359 75.1105L42.1959 71.4241L44.3519 68.0449C44.6599 67.5841 44.6599 66.9697 44.3519 66.3553C44.0439 65.8945 43.5819 65.5873 42.9659 65.5873L38.9619 66.0481L36.4979 62.9761C36.1899 62.5153 35.5739 62.3617 34.9579 62.3617C34.3419 62.5153 33.8799 62.9761 33.7259 63.4369L32.8019 67.2769L29.1059 68.6593ZM34.6499 69.8881C35.1119 69.7345 35.4199 69.2737 35.5739 68.8129L36.0359 67.1233L37.1139 68.3521C37.4219 68.8129 37.8839 68.9665 38.4999 68.9665L40.1939 68.8129L39.2699 70.1953C38.9619 70.6561 38.9619 71.1169 39.1159 71.5777L39.7319 73.1137L38.1919 72.6529C37.7299 72.4993 37.1139 72.6529 36.8059 72.9601L35.4199 74.3425V72.6529C35.4199 72.1921 35.1119 71.7313 34.6499 71.4241L33.2639 70.5025L34.6499 69.8881Z" fill="#005AAA"/>
<path d="M45.4303 131.021C45.5843 131.635 46.0463 131.942 46.6623 132.096L50.6663 132.71L52.3603 136.243C52.6683 136.704 53.1303 137.165 53.7463 137.165C54.3623 137.165 54.8243 136.858 55.1323 136.243L56.8263 132.71L60.8303 132.096C61.4463 131.942 61.9083 131.635 62.0623 131.021C62.2163 130.406 62.0623 129.792 61.6003 129.485L58.6743 126.72L59.2903 122.88C59.4443 122.266 59.1363 121.651 58.6743 121.344C58.2123 121.037 57.5963 120.883 56.9803 121.19L53.4383 123.034L49.8963 121.19C49.4343 120.883 48.8183 121.037 48.2023 121.344C47.7403 121.651 47.4323 122.266 47.5863 122.88L48.2023 126.72L45.4303 129.485C45.2763 129.946 45.1223 130.56 45.4303 131.021ZM51.2823 128.41C51.5903 128.102 51.7443 127.488 51.7443 127.027L51.4363 125.338L52.9763 126.106C53.4383 126.413 53.9003 126.413 54.3623 126.106L55.9023 125.338L55.5943 127.027C55.4403 127.488 55.7483 128.102 56.0563 128.41L57.2883 129.638L55.5943 129.946C55.1323 129.946 54.6703 130.406 54.3623 130.714L53.5923 132.25L52.8223 130.714C52.6683 130.253 52.2063 129.946 51.5903 129.946L49.8963 129.638L51.2823 128.41Z" fill="#005AAA"/>
<path d="M24.0238 97.3823C21.0978 97.3823 18.6338 99.8399 18.6338 102.758C18.6338 105.677 21.0978 108.134 24.0238 108.134C26.9498 108.134 29.4138 105.677 29.4138 102.758C29.4138 99.8399 26.9498 97.3823 24.0238 97.3823ZM24.0238 105.062C22.7918 105.062 21.7138 103.987 21.7138 102.758C21.7138 101.53 22.7918 100.454 24.0238 100.454C25.2558 100.454 26.3338 101.53 26.3338 102.758C26.3338 103.987 25.2558 105.062 24.0238 105.062Z" fill="#005AAA"/>
<path d="M118.426 25.344C118.426 22.4256 115.962 19.968 113.036 19.968C110.11 19.968 107.646 22.4256 107.646 25.344C107.646 28.2624 110.11 30.72 113.036 30.72C115.962 30.72 118.426 28.2624 118.426 25.344ZM110.726 25.344C110.726 24.1152 111.804 23.04 113.036 23.04C114.268 23.04 115.346 24.1152 115.346 25.344C115.346 26.5728 114.268 27.648 113.036 27.648C111.804 27.648 110.726 26.5728 110.726 25.344Z" fill="#005AAA"/>
<path d="M92.708 126.874C92.708 129.792 95.172 132.25 98.098 132.25C101.024 132.25 103.488 129.792 103.488 126.874C103.488 123.955 101.024 121.498 98.098 121.498C95.172 121.498 92.708 123.955 92.708 126.874ZM100.408 126.874C100.408 128.102 99.33 129.178 98.098 129.178C96.866 129.178 95.788 128.102 95.788 126.874C95.788 125.645 96.866 124.57 98.098 124.57C99.484 124.57 100.408 125.645 100.408 126.874Z" fill="#005AAA"/>
<path d="M95.3262 40.704L87.3182 48.6912C86.7022 49.3056 86.7022 50.2272 87.3182 50.8416C87.6262 51.1488 88.0882 51.3024 88.3962 51.3024C88.7042 51.3024 89.1662 51.1488 89.4742 50.8416L97.4822 42.8544C98.0982 42.24 98.0982 41.3184 97.4822 40.704C96.8662 40.0896 95.9422 40.0896 95.3262 40.704Z" fill="#005AAA"/>
<path d="M80.696 76.9536C80.08 76.3392 79.156 76.3392 78.54 76.9536L38.192 117.197C37.576 117.811 37.576 118.733 38.192 119.347C38.5 119.654 38.962 119.808 39.27 119.808C39.578 119.808 40.04 119.654 40.348 119.347L80.696 79.104C81.312 78.4896 81.312 77.568 80.696 76.9536Z" fill="#005AAA"/>
<path d="M126.126 50.3808L72.0721 104.294C71.4561 104.909 71.4561 105.83 72.0721 106.445C72.3801 106.752 72.8421 106.906 73.1501 106.906C73.4581 106.906 73.9201 106.752 74.2281 106.445L128.282 52.5312C128.898 51.9168 128.898 50.9952 128.282 50.3808C127.666 49.7664 126.742 49.7664 126.126 50.3808Z" fill="#005AAA"/>
<path d="M92.2461 17.664L52.0521 57.7536C51.4361 58.368 51.4361 59.2896 52.0521 59.904C52.3601 60.2112 52.8221 60.3648 53.1301 60.3648C53.4381 60.3648 53.9001 60.2112 54.2081 59.904L94.4021 19.8144C95.0181 19.2 95.0181 18.2784 94.4021 17.664C93.7861 17.0496 92.8621 17.0496 92.2461 17.664Z" fill="#005AAA"/>
<path d="M50.6661 89.5489L80.3881 59.904C81.0041 59.2896 81.0041 58.368 80.3881 57.7536C79.7721 57.1392 78.8481 57.1392 78.2321 57.7536L48.5101 87.3985C47.8941 88.0129 47.8941 88.9345 48.5101 89.5489C48.8181 89.8561 49.2801 90.0097 49.5881 90.0097C49.8961 90.0097 50.3581 89.8561 50.6661 89.5489Z" fill="#005AAA"/>
<path d="M87.9336 110.746L79.9256 118.733C79.3096 119.347 79.3096 120.269 79.9256 120.883C80.2336 121.19 80.6956 121.344 81.0036 121.344C81.3116 121.344 81.7736 121.19 82.0816 120.883L90.0896 112.896C90.7056 112.282 90.7056 111.36 90.0896 110.746C89.4736 110.131 88.5496 110.131 87.9336 110.746Z" fill="#005AAA"/>
<path d="M128.898 72.0384C128.282 71.424 127.358 71.424 126.742 72.0384L97.0201 101.683C96.4041 102.298 96.4041 103.219 97.0201 103.834C97.3281 104.141 97.7901 104.294 98.0981 104.294C98.4061 104.294 98.8681 104.141 99.1761 103.834L128.898 74.1888C129.514 73.5744 129.514 72.6528 128.898 72.0384Z" fill="#005AAA"/>
<path d="M88.3958 69.888C88.7038 70.1952 89.1658 70.3488 89.4738 70.3488C89.7818 70.3488 90.2438 70.1952 90.5518 69.888L117.194 43.3152C117.81 42.7008 117.81 41.7792 117.194 41.1648C116.578 40.5504 115.654 40.5504 115.038 41.1648L88.3958 67.7376C87.7798 68.352 87.7798 69.4272 88.3958 69.888Z" fill="#005AAA"/>
</svg>
