<svg width="144" height="181" viewBox="0 0 144 181" fill="none" xmlns="http://www.w3.org/2000/svg">
<path d="M58.7025 30.671H65.1466V39.096C65.1466 39.8963 65.7914 40.544 66.5866 40.544H77.3057C78.101 40.544 78.7457 39.8963 78.7457 39.096V30.671H85.1449C85.7271 30.671 86.2523 30.3189 86.4752 29.7773C86.6981 29.2357 86.575 28.6135 86.163 28.1992L72.9421 14.9042C72.4021 14.3612 71.4459 14.3612 70.9059 14.9042L57.6843 28.1992C57.2723 28.6135 57.1493 29.2357 57.3721 29.7773C57.595 30.3189 58.1203 30.671 58.7025 30.671ZM71.924 17.9755L81.6686 27.775H77.3057C76.5105 27.775 75.8657 28.4226 75.8657 29.223V37.648H68.0266V29.223C68.0266 28.4226 67.3818 27.775 66.5866 27.775H62.1787L71.924 17.9755Z" fill="#005AAA"/>
<path d="M31.6842 52.6611C32.2228 52.886 32.8415 52.7601 33.2535 52.3472L37.8098 47.7656L43.735 53.7231C44.0163 54.0059 44.3847 54.1473 44.7531 54.1473C45.1216 54.1473 45.49 54.0059 45.7713 53.7231L53.3503 46.1013C53.9128 45.5357 53.9128 44.6193 53.3503 44.0537L47.4257 38.0963L51.951 33.5458C52.3631 33.1315 52.4861 32.5093 52.2632 31.9677C52.0403 31.4261 51.5151 31.074 50.9329 31.074H32.2354C31.4402 31.074 30.7954 31.7217 30.7954 32.522V51.3234C30.7954 51.9088 31.1463 52.4377 31.6842 52.6611ZM33.6754 33.97H47.4567L44.3713 37.0725C43.8088 37.6381 43.8088 38.5544 44.3713 39.1201L50.2959 45.0775L44.7531 50.6517L38.8279 44.6943C38.5467 44.4115 38.1782 44.2701 37.8098 44.2701C37.4413 44.2701 37.0729 44.4115 36.7917 44.6943L33.6754 47.8278V33.97Z" fill="#005AAA"/>
<path d="M28.0433 86.7952C28.319 87.0724 28.6867 87.2194 29.0615 87.2194C29.2471 87.2194 29.4341 87.1841 29.6127 87.1091C30.1506 86.8857 30.5015 86.3568 30.5015 85.7714V79.2908H38.8799C39.6751 79.2908 40.3199 78.6431 40.3199 77.8428V67.0648C40.3199 66.2644 39.6751 65.6168 38.8799 65.6168H30.5015V59.1814C30.5015 58.596 30.1506 58.0671 29.6127 57.8437C29.0727 57.616 28.4554 57.7419 28.0433 58.1576L14.8218 71.4526C14.2593 72.0183 14.2593 72.9346 14.8218 73.5002L28.0433 86.7952ZM27.6215 62.677V67.0648C27.6215 67.8651 28.2662 68.5128 29.0615 68.5128H37.4399V76.3948H29.0615C28.2662 76.3948 27.6215 77.0424 27.6215 77.8428V82.2759L17.8762 72.4764L27.6215 62.677Z" fill="#005AAA"/>
<path d="M53.4262 98.7751L45.8473 91.1533C45.2848 90.5877 44.3735 90.5877 43.811 91.1533L37.8858 97.1107L33.3605 92.5603C32.9477 92.146 32.329 92.0201 31.7911 92.2464C31.2532 92.4698 30.9023 92.9986 30.9023 93.5841V112.385C30.9023 113.186 31.5471 113.833 32.3423 113.833H51.0405C51.6227 113.833 52.148 113.48 52.3709 112.94C52.5938 112.398 52.4707 111.776 52.0587 111.362L47.5017 106.78L53.4262 100.823C53.9887 100.257 53.9887 99.3407 53.4262 98.7751ZM44.4473 105.756C44.1773 106.028 44.0255 106.395 44.0255 106.78C44.0255 107.165 44.1773 107.532 44.4473 107.804L47.5636 110.937H33.7823V97.0796L36.8677 100.182C37.4302 100.748 38.3414 100.748 38.9039 100.182L44.8291 94.2246L50.3719 99.7989L44.4473 105.756Z" fill="#005AAA"/>
<path d="M77.4131 104.256H66.6939C65.8987 104.256 65.2539 104.904 65.2539 105.704V114.129H58.8548C58.2726 114.129 57.7474 114.481 57.5245 115.023C57.3016 115.564 57.4246 116.186 57.8367 116.601L71.0575 129.896C71.3275 130.167 71.6939 130.32 72.0757 130.32C72.4575 130.32 72.8238 130.167 73.0938 129.896L86.3154 116.601C86.7274 116.186 86.8504 115.564 86.6275 115.023C86.4046 114.481 85.8794 114.129 85.2972 114.129H78.8531V105.704C78.8531 104.904 78.2083 104.256 77.4131 104.256ZM81.821 117.025L72.0757 126.824L62.3311 117.025H66.6939C67.4892 117.025 68.1339 116.377 68.1339 115.577V107.152H75.9731V115.577C75.9731 116.377 76.6178 117.025 77.4131 117.025H81.821Z" fill="#005AAA"/>
<path d="M113.205 112.278V93.4766C113.205 92.8912 112.854 92.3623 112.316 92.1389C111.775 91.9112 111.158 92.0371 110.746 92.4528L106.19 97.0344L100.265 91.0769C99.7024 90.5113 98.7911 90.5113 98.2286 91.0769L90.6497 98.6987C90.0872 99.2643 90.0872 100.181 90.6497 100.746L96.5742 106.704L92.0489 111.254C91.6368 111.669 91.5138 112.291 91.7367 112.832C91.9596 113.374 92.4848 113.726 93.067 113.726H111.765C112.56 113.726 113.205 113.078 113.205 112.278ZM110.325 110.83H96.5433L99.6286 107.728C100.191 107.162 100.191 106.246 99.6286 105.68L93.704 99.7225L99.2468 94.1483L105.172 100.106C105.735 100.671 106.646 100.671 107.208 100.106L110.325 96.9722V110.83Z" fill="#005AAA"/>
<path d="M115.956 58.0049C115.544 57.5905 114.925 57.4619 114.387 57.6909C113.849 57.9144 113.498 58.4432 113.498 59.0286V65.5093H105.12C104.325 65.5093 103.68 66.1569 103.68 66.9573V77.7353C103.68 78.5356 104.325 79.1833 105.12 79.1833H113.498V85.6187C113.498 86.2041 113.849 86.7329 114.387 86.9564C114.566 87.0313 114.753 87.0667 114.938 87.0667C115.313 87.0667 115.681 86.9196 115.956 86.6424L129.178 73.3474C129.741 72.7818 129.741 71.8655 129.178 71.2999L115.956 58.0049ZM116.378 82.1231V77.7353C116.378 76.9349 115.734 76.2873 114.938 76.2873H106.56V68.4053H114.938C115.734 68.4053 116.378 67.7576 116.378 66.9573V62.5242L126.124 72.3236L116.378 82.1231Z" fill="#005AAA"/>
<path d="M98.1527 53.6467C98.434 53.9295 98.8024 54.0709 99.1708 54.0709C99.5393 54.0709 99.9077 53.9295 100.189 53.6467L106.114 47.6893L110.64 52.2397C111.052 52.654 111.669 52.7799 112.209 52.5536C112.747 52.3302 113.098 51.8013 113.098 51.2159V32.4146C113.098 31.6142 112.453 30.9666 111.658 30.9666H92.9594C92.3772 30.9666 91.852 31.3201 91.6291 31.8602C91.4062 32.4018 91.5293 33.024 91.9413 33.4383L96.4983 38.0199L90.5737 43.9773C90.0112 44.543 90.0112 45.4593 90.5737 46.0249L98.1527 53.6467ZM99.5526 39.0437C99.8226 38.7722 99.9745 38.4045 99.9745 38.0199C99.9745 37.6353 99.8226 37.2676 99.5526 36.9961L96.4364 33.8626H110.218V47.7204L107.132 44.6179C106.57 44.0523 105.659 44.0523 105.096 44.6179L99.1708 50.5754L93.6281 45.0011L99.5526 39.0437Z" fill="#005AAA"/>
<path d="M72 96.0276C84.9564 96.0276 95.497 85.4278 95.497 72.4C95.497 59.3723 84.9564 48.7725 72 48.7725C59.0435 48.7725 48.5029 59.3723 48.5029 72.4C48.5029 85.4278 59.0435 96.0276 72 96.0276ZM59.6113 88.9318C59.7651 82.1347 65.3013 76.6493 72.0977 76.6493C78.8466 76.6493 84.349 82.0595 84.5762 88.7907C81.0913 91.5008 76.7361 93.1316 72 93.1316C67.3477 93.1316 63.0651 91.5555 59.6113 88.9318ZM65.0784 66.6957C65.0784 62.8028 68.227 59.6367 72.0977 59.6367C75.9684 59.6367 79.117 62.8028 79.117 66.6957C79.117 70.5872 75.9684 73.7533 72.0977 73.7533C68.227 73.7533 65.0784 70.5872 65.0784 66.6957ZM72 51.6685C83.3681 51.6685 92.617 60.9687 92.617 72.4C92.617 77.7771 90.5534 82.6666 87.2027 86.3544C86.2188 81.0993 82.587 76.7823 77.7555 74.8514C80.3156 73.0501 81.997 70.0686 81.997 66.6957C81.997 61.2063 77.5561 56.7407 72.0977 56.7407C66.6393 56.7407 62.1984 61.2063 62.1984 66.6957C62.1984 70.0685 63.8797 73.0501 66.4397 74.8513C61.5519 76.8045 57.8969 81.2012 56.964 86.5388C53.5136 82.8309 51.3829 77.8665 51.3829 72.4C51.3829 60.9687 60.6318 51.6685 72 51.6685Z" fill="#005AAA"/>
</svg>
