<svg width="40" height="38" viewBox="0 0 40 38" fill="none" xmlns="http://www.w3.org/2000/svg">
<path d="M35.15 0H4.85038C2.17598 0 0.000388402 2.15542 0.000388402 4.80416V22.9731L0 22.975C0 22.975 0.000388402 22.9761 0.000388402 22.9769V24.5883C0.000388402 27.2374 2.17598 29.3924 4.85038 29.3924H14.5089V31.9997C14.5089 32.0431 14.5186 32.0838 14.522 32.1265H14.5038C14.5038 33.1592 13.6563 33.9987 12.6141 33.9995H12.3488C11.492 33.9995 10.7973 34.6876 10.7973 35.5363C10.7973 36.385 11.492 37.0732 12.3488 37.0732H27.5981C28.4549 37.0732 29.1496 36.385 29.1496 35.5363C29.1496 34.6876 28.4549 33.9995 27.5981 33.9995H27.5562C26.5144 33.9987 25.6665 33.1592 25.6665 32.1265C25.6665 31.2777 24.9718 30.5896 24.115 30.5896C23.2582 30.5896 22.5635 31.2777 22.5635 32.1265C22.5635 32.7896 22.6981 33.4213 22.9378 33.9995H17.2325C17.4722 33.4213 17.6068 32.7896 17.6068 32.1265H17.5991C17.6025 32.0838 17.6119 32.0431 17.6119 31.9997V29.3924H35.15C37.8244 29.3924 40 27.2374 40 24.5883V4.80416C40 2.15542 37.8244 0 35.15 0ZM36.897 24.5883C36.897 25.5423 36.1131 26.3188 35.15 26.3188H4.85038C3.8869 26.3188 3.10339 25.5423 3.10339 24.5883V24.1276H32.8969C33.7537 24.1276 34.4487 23.4395 34.4487 22.5908C34.4487 21.742 33.7537 21.0539 32.8969 21.0539H3.10339V4.80416C3.10339 3.85017 3.8869 3.07368 4.85038 3.07368H35.15C36.1131 3.07368 36.897 3.85017 36.897 4.80416V24.5883Z" fill="url(#paint0_linear_2_2214)"/>
<path d="M26.3879 10.8647L16.8655 5.41891C16.3857 5.14459 15.7942 5.14459 15.314 5.41891C14.8338 5.69324 14.5383 6.20078 14.5383 6.74982L14.5387 17.641C14.5387 18.1897 14.8342 18.6976 15.3144 18.9719C15.5541 19.1091 15.8222 19.1779 16.0902 19.1779C16.3578 19.1779 16.6258 19.1091 16.8659 18.9719L19.3216 17.5672C20.0636 17.1431 20.318 16.2033 19.8898 15.4679C19.4612 14.7333 18.5125 14.4801 17.7701 14.9058L17.6417 14.9792L17.6413 9.41201L22.5087 12.1956L22.3978 12.259C21.6554 12.6832 21.4013 13.6233 21.8296 14.3583C22.2582 15.0933 23.2069 15.3461 23.9489 14.9208L26.3875 13.5265C26.8673 13.2522 27.1632 12.745 27.1632 12.1956C27.1636 11.6466 26.8677 11.1394 26.3879 10.8647Z" fill="url(#paint1_linear_2_2214)"/>
<defs>
<linearGradient id="paint0_linear_2_2214" x1="0" y1="19" x2="40" y2="19" gradientUnits="userSpaceOnUse">
<stop stop-color="#4F2E7F"/>
<stop offset="1" stop-color="#0196A9"/>
</linearGradient>
<linearGradient id="paint1_linear_2_2214" x1="0" y1="19" x2="40" y2="19" gradientUnits="userSpaceOnUse">
<stop stop-color="#4F2E7F"/>
<stop offset="1" stop-color="#0196A9"/>
</linearGradient>
</defs>
</svg>
