<svg width="30" height="31" viewBox="0 0 30 31" fill="none" xmlns="http://www.w3.org/2000/svg">
<path d="M24.375 28.2124H22.5V25.3999C22.4985 24.1572 22.0042 22.9657 21.1254 22.087C20.2467 21.2082 19.0552 20.7139 17.8125 20.7124H12.1875C10.9448 20.7139 9.75334 21.2082 8.87458 22.087C7.99583 22.9657 7.50149 24.1572 7.5 25.3999V28.2124H5.625V25.3999C5.62699 23.66 6.31903 21.992 7.5493 20.7617C8.77958 19.5314 10.4476 18.8394 12.1875 18.8374H17.8125C19.5524 18.8394 21.2204 19.5314 22.4507 20.7617C23.681 21.992 24.373 23.66 24.375 25.3999V28.2124Z" fill="black"/>
<path d="M4.6875 5.7124C4.43886 5.7124 4.2004 5.81117 4.02459 5.98699C3.84877 6.16281 3.75 6.40126 3.75 6.6499V15.0874H5.625V6.6499C5.625 6.40126 5.52623 6.16281 5.35041 5.98699C5.1746 5.81117 4.93614 5.7124 4.6875 5.7124Z" fill="black"/>
<path d="M3.75 1.9624V3.8374H8.4375V10.3999C8.4375 12.1404 9.1289 13.8096 10.3596 15.0403C11.5903 16.271 13.2595 16.9624 15 16.9624C16.7405 16.9624 18.4097 16.271 19.6404 15.0403C20.8711 13.8096 21.5625 12.1404 21.5625 10.3999V3.8374H26.25V1.9624H3.75ZM10.3125 3.8374H19.6875V6.6499H10.3125V3.8374ZM15 15.0874C13.7568 15.0874 12.5645 14.5935 11.6854 13.7145C10.8064 12.8354 10.3125 11.6431 10.3125 10.3999V8.5249H19.6875V10.3999C19.6875 11.6431 19.1936 12.8354 18.3146 13.7145C17.4355 14.5935 16.2432 15.0874 15 15.0874Z" fill="black"/>
</svg>
