<svg width="30" height="30" viewBox="0 0 30 30" fill="none" xmlns="http://www.w3.org/2000/svg">
<path d="M24.375 28.125H22.5V25.3125C22.4985 24.0698 22.0042 22.8783 21.1254 21.9996C20.2467 21.1208 19.0552 20.6265 17.8125 20.625H12.1875C10.9448 20.6265 9.75334 21.1208 8.87458 21.9996C7.99583 22.8783 7.50149 24.0698 7.5 25.3125V28.125H5.625V25.3125C5.62699 23.5726 6.31903 21.9046 7.5493 20.6743C8.77958 19.444 10.4476 18.752 12.1875 18.75H17.8125C19.5524 18.752 21.2204 19.444 22.4507 20.6743C23.681 21.9046 24.373 23.5726 24.375 25.3125V28.125Z" fill="#005AAA"/>
<path d="M4.6875 5.625C4.43886 5.625 4.2004 5.72377 4.02459 5.89959C3.84877 6.0754 3.75 6.31386 3.75 6.5625V15H5.625V6.5625C5.625 6.31386 5.52623 6.0754 5.35041 5.89959C5.1746 5.72377 4.93614 5.625 4.6875 5.625Z" fill="#005AAA"/>
<path d="M3.75 1.875V3.75H8.4375V10.3125C8.4375 12.053 9.1289 13.7222 10.3596 14.9529C11.5903 16.1836 13.2595 16.875 15 16.875C16.7405 16.875 18.4097 16.1836 19.6404 14.9529C20.8711 13.7222 21.5625 12.053 21.5625 10.3125V3.75H26.25V1.875H3.75ZM10.3125 3.75H19.6875V6.5625H10.3125V3.75ZM15 15C13.7568 15 12.5645 14.5061 11.6854 13.6271C10.8064 12.748 10.3125 11.5557 10.3125 10.3125V8.4375H19.6875V10.3125C19.6875 11.5557 19.1936 12.748 18.3146 13.6271C17.4355 14.5061 16.2432 15 15 15Z" fill="#005AAA"/>
</svg>
