<svg width="40" height="42" viewBox="0 0 40 42" fill="none" xmlns="http://www.w3.org/2000/svg">
<path d="M19.9356 0L23.474 8.14774L30.7136 3.27019L29.4273 12.1013L38.0696 12.0425L32.3672 18.7531L39.6682 23.5318L31.36 25.9914L35.0019 34.0903L26.7257 31.5179L25.5521 40.3657L19.9356 33.5782L14.3191 40.3657L13.1454 31.5179L4.86927 34.0903L8.51113 25.9914L0.202915 23.5318L7.504 18.7531L1.80154 12.0425L10.4438 12.1013L9.15759 3.27019L16.3972 8.14774L19.9356 0Z" fill="#FF6418"/>
<path d="M16.0895 25.0973C17.9792 25.0973 19.365 23.7019 19.365 21.8024C19.365 19.8788 18.0277 18.4688 16.2058 18.4688C15.5371 18.4688 14.8878 18.7062 14.4808 19.0308H14.4227L14.7715 16.1042H18.9193V15.0382H13.7637L13.1629 19.9224L14.287 20.0581C14.6989 19.7625 15.4015 19.5493 16.012 19.5541C17.2766 19.5638 18.2021 20.5232 18.2021 21.8218C18.2021 23.0962 17.3106 24.0313 16.0895 24.0313C15.072 24.0313 14.2628 23.3772 14.1707 22.4808H13.0078C13.0805 23.9926 14.3839 25.0973 16.0895 25.0973ZM21.2899 24.9617H27.5502V23.8957H22.9373V23.8181L25.1663 21.4342C26.8719 19.6074 27.3758 18.7546 27.3758 17.6547C27.3758 16.1236 26.1353 14.9025 24.391 14.9025C22.6515 14.9025 21.3287 16.0848 21.3287 17.8292H22.4722C22.4722 16.7002 23.2038 15.9491 24.3522 15.9491C25.4279 15.9491 26.2516 16.6081 26.2516 17.6547C26.2516 18.5705 25.7138 19.2489 24.5654 20.5039L21.2899 24.0895V24.9617Z" fill="white"/>
</svg>
